<svg width="15" height="14" viewBox="0 0 15 14" fill="none" xmlns="http://www.w3.org/2000/svg">
<path d="M14.362 12.88C13.7355 13.3 12.5945 13.699 11.261 13.699C9.37803 13.699 8.75153 13.1845 8.42603 11.739C7.93253 11.816 7.45653 11.872 6.98053 11.872C6.50453 11.872 5.97253 11.816 5.47902 11.739C5.42303 12.2535 5.38453 12.7645 5.34603 13.2405C4.73703 13.489 3.72903 13.6955 2.72103 13.6955C1.14253 13.6955 0.551025 13.048 0.551025 12.2675C0.551025 11.088 1.69203 6.16 2.87153 4.41V4.3715C2.49003 4.3715 2.26253 4.389 2.01403 4.389C1.80403 4.2 1.65352 3.591 1.65352 2.849C1.65352 1.1375 2.81553 -0.00350189 5.66803 -0.00350189C7.74003 -0.00350189 9.51103 0.510998 10.043 2.583H10.33C12.367 2.583 12.9165 5.362 13.963 10.955C14.1345 12.1905 14.306 12.6665 14.362 12.8765V12.88ZM7.05753 8.6205C7.36203 8.6205 7.68402 8.638 8.00952 8.6975C7.82053 7.2695 7.51603 5.6175 7.00153 4.7775C6.58153 6.0515 6.24202 7.364 5.97253 8.6765C6.31553 8.638 6.67603 8.6205 7.05753 8.6205Z" fill="#EDF2F7"/>
</svg>
