<svg width="19" height="14" viewBox="0 0 19 14" fill="none" xmlns="http://www.w3.org/2000/svg">
<path d="M18.38 12.5755C17.981 13.1845 16.84 13.678 15.1635 13.678C13.585 13.678 12.8815 13.013 12.8815 11.739C12.8815 10.9795 12.899 8.2005 13.1475 7.098C12.3285 8.526 11.9855 9.534 11.646 10.92C11.226 11.207 10.638 11.529 9.83996 11.529C8.52746 11.529 7.97446 11.0915 7.40396 9.7405L6.33996 7.21H6.32246C6.45546 9.282 6.66546 11.6235 6.66546 12.537C6.11246 13.2965 5.16396 13.678 4.01946 13.678C2.49696 13.678 1.62196 13.013 1.62196 12.005L1.63946 7.1715C1.63946 5.7435 1.88796 5.0015 2.43746 4.718V4.6025C2.01746 4.564 1.50646 4.585 1.10746 4.6795C0.97446 4.3575 0.897461 3.7275 0.897461 3.2165C0.897461 1.162 1.84946 0 4.47446 0C6.26296 0 7.21496 0.42 8.03046 1.484C8.73396 2.3975 9.53196 4.053 10.218 5.67C10.9985 3.997 11.8525 1.9985 11.9505 0.875C12.8255 0.3045 13.7775 0 15.279 0C17.295 0 18.3415 0.7245 18.3415 2.6425C18.3415 4.354 18.1525 10.157 18.1525 10.766C18.1525 11.452 18.247 12.46 18.38 12.572V12.5755Z" fill="#EDF2F7"/>
</svg>
