<svg width="15" height="14" viewBox="0 0 15 14" fill="none" xmlns="http://www.w3.org/2000/svg">
<path d="M0.765327 11.2245C0.765327 8.827 1.08733 4.984 1.22033 4.2245V4.1685C0.765333 4.186 0.478329 4.2455 0.362829 4.3015C0.268329 4.018 0.152832 3.2935 0.152832 2.7405C0.152832 0.952002 1.34983 0.0770019 3.30983 0.0770019C5.07733 0.0770019 5.99084 0.381502 6.96384 1.5225C7.45734 2.037 8.63683 3.843 9.77783 5.747C9.79533 5.138 9.81633 4.7775 9.81633 3.808C9.81633 2.9155 9.73933 1.47 9.37883 0.630002C9.83383 0.269502 10.6913 0.00350189 12.0423 0.00350189C13.9813 0.00350189 14.8773 0.878502 14.8773 2.0965C14.8773 3.829 14.4958 7.1575 14.4958 9.611C14.4958 10.9795 14.5903 12.0645 14.8948 12.5405C14.4398 13.167 13.5438 13.664 12.2138 13.664C10.5583 13.664 9.51184 13.1495 8.55983 11.648C7.72333 10.353 6.44934 8.6625 5.68634 7.2905H5.66883C5.59183 8.659 5.53583 12.0085 5.91733 13.0165C5.29083 13.3385 4.45083 13.6815 3.21533 13.6815C1.84683 13.6815 0.761834 13.2055 0.761834 11.228L0.765327 11.2245Z" fill="#EDF2F7"/>
</svg>
