<svg width="17" height="14" viewBox="0 0 17 14" fill="none" xmlns="http://www.w3.org/2000/svg">
<path d="M0.986572 7.497C0.986572 5.292 2.58607 3.0275 5.03957 2.8735C5.36157 0.875 7.26557 0 9.35857 0C13.3731 0 16.3796 2.6075 16.3796 6.6395C16.3796 10.6715 13.0301 13.699 8.31557 13.699C4.32207 13.699 0.99007 11.683 0.99007 7.497H0.986572ZM10.2686 6.9825C10.2686 4.9455 9.65957 4.0145 8.74607 4.0145C7.83257 4.0145 7.24457 4.9455 7.24457 6.9825C7.24457 9.1525 7.75907 10.045 8.74607 10.045C9.67707 10.045 10.2686 9.1525 10.2686 6.9825Z" fill="#EDF2F7"/>
</svg>
