<svg width="15" height="14" viewBox="0 0 15 14" fill="none" xmlns="http://www.w3.org/2000/svg">
<path d="M14.8464 10.2725C14.8464 11.928 13.4954 13.8285 11.0804 13.8285C9.10289 13.8285 7.84639 12.1345 7.55939 9.947C7.16039 9.947 6.79989 9.9295 6.49539 9.87C6.51289 11.4485 6.57239 12.551 6.68439 12.9885C6.09639 13.4085 4.99039 13.692 3.92639 13.692C1.83339 13.692 1.12989 12.7995 1.12989 11.543C1.12989 10.724 1.24539 5.7225 1.73889 5.019V5.0015C1.28389 5.1345 0.863886 5.2675 0.443886 5.4215C0.310886 5.0785 0.233887 4.6025 0.233887 4.0705C0.233887 1.3685 1.90689 0 6.71939 0C9.59289 0 11.4549 0.6475 11.8574 2.149C13.5899 2.4535 14.4264 3.8045 14.4264 5.4005C14.4264 6.769 13.6459 8.1025 12.0674 8.9565C12.9599 9.604 13.9119 10.08 14.8464 10.269V10.2725ZM7.25489 6.6185C8.09139 6.6185 8.70039 6.2195 8.70039 5.572C8.70039 4.7915 7.80789 4.375 6.47439 4.375H6.45689V6.545C6.70539 6.5835 6.97139 6.622 7.25489 6.622V6.6185Z" fill="#EDF2F7"/>
</svg>
