<svg width="13" height="14" viewBox="0 0 13 14" fill="none" xmlns="http://www.w3.org/2000/svg">
<path d="M3.91645 11.5675C3.91645 9.968 3.93395 7.021 4.14395 4.6445C3.15345 4.6445 2.27845 4.739 1.48045 5.1205C1.00445 4.739 0.699951 3.864 0.699951 2.744C0.699951 1.085 1.76395 0.115501 3.57345 0.115501C4.84745 0.115501 8.40695 0.231001 9.92595 0.231001C11.445 0.231001 11.942 0.175001 12.3235 0.115501C12.7785 0.514501 13.0095 1.3335 13.0095 2.3205C13.0095 3.7485 12.383 4.907 10.8045 4.907C10.4825 4.907 10.101 4.851 9.58645 4.8125C9.41495 7.077 9.45345 9.5095 9.45345 10.689C9.45345 11.7355 9.54795 12.705 9.64245 13.0865C9.18745 13.58 8.31245 13.734 7.18895 13.734C5.17295 13.734 3.91645 13.146 3.91645 11.564V11.5675Z" fill="#EDF2F7"/>
</svg>
