<svg width="105" height="14" viewBox="0 0 105 14" fill="none" xmlns="http://www.w3.org/2000/svg">
<g clip-path="url(#clip0_54_1787)">
<path d="M3.91645 11.5675C3.91645 9.968 3.93395 7.021 4.14395 4.6445C3.15345 4.6445 2.27845 4.739 1.48045 5.1205C1.00445 4.739 0.699951 3.864 0.699951 2.744C0.699951 1.085 1.76395 0.115501 3.57345 0.115501C4.84745 0.115501 8.40695 0.231001 9.92595 0.231001C11.445 0.231001 11.942 0.175001 12.3235 0.115501C12.7785 0.514501 13.0095 1.3335 13.0095 2.3205C13.0095 3.7485 12.383 4.907 10.8045 4.907C10.4825 4.907 10.101 4.851 9.58645 4.8125C9.41495 7.077 9.45345 9.5095 9.45345 10.689C9.45345 11.7355 9.54795 12.705 9.64245 13.0865C9.18745 13.58 8.31245 13.734 7.18895 13.734C5.17295 13.734 3.91645 13.146 3.91645 11.564V11.5675Z" fill="#EDF2F7"/>
<path d="M26.362 12.88C25.7355 13.3 24.5945 13.699 23.261 13.699C21.378 13.699 20.7515 13.1845 20.426 11.739C19.9325 11.816 19.4565 11.872 18.9805 11.872C18.5045 11.872 17.9725 11.816 17.479 11.739C17.423 12.2535 17.3845 12.7645 17.346 13.2405C16.737 13.489 15.729 13.6955 14.721 13.6955C13.1425 13.6955 12.551 13.048 12.551 12.2675C12.551 11.088 13.692 6.16 14.8715 4.41V4.3715C14.49 4.3715 14.2625 4.389 14.014 4.389C13.804 4.2 13.6535 3.591 13.6535 2.849C13.6535 1.1375 14.8155 -0.00350189 17.668 -0.00350189C19.74 -0.00350189 21.511 0.510998 22.043 2.583H22.33C24.367 2.583 24.9165 5.362 25.963 10.955C26.1345 12.1905 26.306 12.6665 26.362 12.8765V12.88ZM19.0575 8.6205C19.362 8.6205 19.684 8.638 20.0095 8.6975C19.8205 7.2695 19.516 5.6175 19.0015 4.7775C18.5815 6.0515 18.242 7.364 17.9725 8.6765C18.3155 8.638 18.676 8.6205 19.0575 8.6205Z" fill="#EDF2F7"/>
<path d="M44.38 12.5755C43.981 13.1845 42.84 13.678 41.1635 13.678C39.585 13.678 38.8815 13.013 38.8815 11.739C38.8815 10.9795 38.899 8.2005 39.1475 7.098C38.3285 8.526 37.9855 9.534 37.646 10.92C37.226 11.207 36.638 11.529 35.84 11.529C34.5275 11.529 33.9745 11.0915 33.404 9.7405L32.34 7.21H32.3225C32.4555 9.282 32.6655 11.6235 32.6655 12.537C32.1125 13.2965 31.164 13.678 30.0195 13.678C28.497 13.678 27.622 13.013 27.622 12.005L27.6395 7.1715C27.6395 5.7435 27.888 5.0015 28.4375 4.718V4.6025C28.0175 4.564 27.5065 4.585 27.1075 4.6795C26.9745 4.3575 26.8975 3.7275 26.8975 3.2165C26.8975 1.162 27.8495 0 30.4745 0C32.263 0 33.215 0.42 34.0305 1.484C34.734 2.3975 35.532 4.053 36.218 5.67C36.9985 3.997 37.8525 1.9985 37.9505 0.875C38.8255 0.3045 39.7775 0 41.279 0C43.295 0 44.3415 0.7245 44.3415 2.6425C44.3415 4.354 44.1525 10.157 44.1525 10.766C44.1525 11.452 44.247 12.46 44.38 12.572V12.5755Z" fill="#EDF2F7"/>
<path d="M59.8464 10.2725C59.8464 11.928 58.4954 13.8285 56.0804 13.8285C54.1029 13.8285 52.8464 12.1345 52.5594 9.947C52.1604 9.947 51.7999 9.9295 51.4954 9.87C51.5129 11.4485 51.5724 12.551 51.6844 12.9885C51.0964 13.4085 49.9904 13.692 48.9264 13.692C46.8334 13.692 46.1299 12.7995 46.1299 11.543C46.1299 10.724 46.2454 5.7225 46.7389 5.019V5.0015C46.2839 5.1345 45.8639 5.2675 45.4439 5.4215C45.3109 5.0785 45.2339 4.6025 45.2339 4.0705C45.2339 1.3685 46.9069 0 51.7194 0C54.5929 0 56.4549 0.6475 56.8574 2.149C58.5899 2.4535 59.4264 3.8045 59.4264 5.4005C59.4264 6.769 58.6459 8.1025 57.0674 8.9565C57.9599 9.604 58.9119 10.08 59.8464 10.269V10.2725ZM52.2549 6.6185C53.0914 6.6185 53.7004 6.2195 53.7004 5.572C53.7004 4.7915 52.8079 4.375 51.4744 4.375H51.4569V6.545C51.7054 6.5835 51.9714 6.622 52.2549 6.622V6.6185Z" fill="#EDF2F7"/>
<path d="M73.7939 12.88C73.1674 13.3 72.0264 13.699 70.6929 13.699C68.8099 13.699 68.1834 13.1845 67.8579 11.739C67.3644 11.816 66.8884 11.872 66.4124 11.872C65.9364 11.872 65.4044 11.816 64.9109 11.739C64.8549 12.2535 64.8164 12.7645 64.7779 13.2405C64.1689 13.489 63.1609 13.6955 62.1529 13.6955C60.5744 13.6955 59.9829 13.048 59.9829 12.2675C59.9829 11.088 61.1239 6.16 62.3034 4.41V4.3715C61.9219 4.3715 61.6944 4.389 61.4459 4.389C61.2359 4.2 61.0854 3.591 61.0854 2.849C61.0854 1.1375 62.2474 -0.00350189 65.0999 -0.00350189C67.1719 -0.00350189 68.9429 0.510998 69.4749 2.583H69.7619C71.7989 2.583 72.3484 5.362 73.3949 10.955C73.5664 12.1905 73.7379 12.6665 73.7939 12.8765V12.88ZM66.4894 8.6205C66.7939 8.6205 67.1159 8.638 67.4414 8.6975C67.2524 7.2695 66.9479 5.6175 66.4334 4.7775C66.0134 6.0515 65.6739 7.364 65.4079 8.6765C65.7509 8.638 66.1114 8.6205 66.4929 8.6205H66.4894Z" fill="#EDF2F7"/>
<path d="M73.9866 7.497C73.9866 5.292 75.5861 3.0275 78.0396 2.8735C78.3616 0.875 80.2656 0 82.3586 0C86.3731 0 89.3796 2.6075 89.3796 6.6395C89.3796 10.6715 86.0301 13.699 81.3156 13.699C77.3221 13.699 73.9901 11.683 73.9901 7.497H73.9866ZM83.2686 6.9825C83.2686 4.9455 82.6596 4.0145 81.7461 4.0145C80.8326 4.0145 80.2446 4.9455 80.2446 6.9825C80.2446 9.1525 80.7591 10.045 81.7461 10.045C82.6771 10.045 83.2686 9.1525 83.2686 6.9825Z" fill="#EDF2F7"/>
<path d="M90.7653 11.2245C90.7653 8.827 91.0873 4.984 91.2203 4.2245V4.1685C90.7653 4.186 90.4783 4.2455 90.3628 4.3015C90.2683 4.018 90.1528 3.2935 90.1528 2.7405C90.1528 0.952002 91.3498 0.0770019 93.3098 0.0770019C95.0773 0.0770019 95.9908 0.381502 96.9638 1.5225C97.4573 2.037 98.6368 3.843 99.7778 5.747C99.7953 5.138 99.8163 4.7775 99.8163 3.808C99.8163 2.9155 99.7393 1.47 99.3788 0.630002C99.8338 0.269502 100.691 0.00350189 102.042 0.00350189C103.981 0.00350189 104.877 0.878502 104.877 2.0965C104.877 3.829 104.496 7.1575 104.496 9.611C104.496 10.9795 104.59 12.0645 104.895 12.5405C104.44 13.167 103.544 13.664 102.214 13.664C100.558 13.664 99.5118 13.1495 98.5598 11.648C97.7233 10.353 96.4493 8.6625 95.6863 7.2905H95.6688C95.5918 8.659 95.5358 12.0085 95.9173 13.0165C95.2908 13.3385 94.4508 13.6815 93.2153 13.6815C91.8468 13.6815 90.7618 13.2055 90.7618 11.228L90.7653 11.2245Z" fill="#EDF2F7"/>
</g>
<defs>
<clipPath id="clip0_54_1787">
<rect width="104.199" height="13.8285" fill="white" transform="translate(0.699951)"/>
</clipPath>
</defs>
</svg>
